STARTFONT 2.1
FONT -Adobe-ITC Avant Garde Gothic-Book-R-Normal--20-140-100-100-P-104-ISO8859-1
SIZE 14 100 100
FONTBOUNDINGBOX 21 23 -1 -4

STARTPROPERTIES 25
FONTNAME_REGISTRY ""
FAMILY_NAME "ITC Avant Garde Gothic"
FOUNDRY "Adobe"
WEIGHT_NAME "Book"
SLANT "R"
SETWIDTH_NAME "Normal"
ADD_STYLE_NAME ""
PIXEL_SIZE 20
POINT_SIZE 140
RESOLUTION_X 100
RESOLUTION_Y 100
SPACING "P"
AVERAGE_WIDTH 104
CHARSET_REGISTRY "ISO8859"
CHARSET_ENCODING "1"
CHARSET_COLLECTIONS "ASCII ISO8859-1 ADOBE-STANDARD"
FULL_NAME "ITC Avant Garde Gothic Book"
COPYRIGHT "Copyright (c) 1987 Adobe Systems, Inc., Portions Copyright 1988 Digital Equipment Corp."
CAP_HEIGHT 14
X_HEIGHT 10
WEIGHT 10
QUAD_WIDTH 12
DEFAULT_CHAR 32
FONT_DESCENT 4
FONT_ASCENT 17
ENDPROPERTIES

CHARS 190

STARTCHAR space
ENCODING 32
SWIDTH 277 0
DWIDTH 5 0
BBX 1 1 0 0
BITMAP
00
ENDCHAR

STARTCHAR exclam
ENCODING 33
SWIDTH 295 0
DWIDTH 5 0
BBX 1 14 2 0
BITMAP
80
80
80
80
80
80
80
80
80
80
80
00
80
80
ENDCHAR

STARTCHAR quotedbl
ENCODING 34
SWIDTH 309 0
DWIDTH 7 0
BBX 3 4 2 10
BITMAP
A0
A0
A0
A0
ENDCHAR

STARTCHAR numbersign
ENCODING 35
SWIDTH 720 0
DWIDTH 14 0
BBX 12 12 1 1
BITMAP
0240
0240
0480
0480
7FF0
0900
0900
FFE0
1200
1200
2400
2400
ENDCHAR

STARTCHAR dollar
ENCODING 36
SWIDTH 554 0
DWIDTH 10 0
BBX 8 17 1 -2
BITMAP
08
08
3C
42
81
81
80
60
18
06
01
81
81
42
3C
10
10
ENDCHAR

STARTCHAR percent
ENCODING 37
SWIDTH 775 0
DWIDTH 14 0
BBX 11 14 1 0
BITMAP
7080
8880
8900
8900
7200
0200
0400
0400
0800
09C0
1220
1220
2220
21C0
ENDCHAR

STARTCHAR ampersand
ENCODING 38
SWIDTH 757 0
DWIDTH 16 0
BBX 13 14 1 0
BITMAP
1C00
2200
4100
4100
2200
1C20
2420
4240
8140
8080
80C0
8120
4210
3C08
ENDCHAR

STARTCHAR quoteright
ENCODING 39
SWIDTH 351 0
DWIDTH 5 0
BBX 3 3 1 11
BITMAP
20
40
80
ENDCHAR

STARTCHAR parenleft
ENCODING 40
SWIDTH 369 0
DWIDTH 7 0
BBX 5 17 1 -3
BITMAP
08
10
20
40
40
80
80
80
80
80
80
80
40
40
20
10
08
ENDCHAR

STARTCHAR parenright
ENCODING 41
SWIDTH 369 0
DWIDTH 7 0
BBX 5 17 1 -3
BITMAP
80
40
20
10
10
08
08
08
08
08
08
08
10
10
20
40
80
ENDCHAR

STARTCHAR asterisk
ENCODING 42
SWIDTH 425 0
DWIDTH 8 0
BBX 6 5 1 9
BITMAP
48
30
FC
30
48
ENDCHAR

STARTCHAR plus
ENCODING 43
SWIDTH 606 0
DWIDTH 11 0
BBX 9 9 1 1
BITMAP
0800
0800
0800
0800
FF80
0800
0800
0800
0800
ENDCHAR

STARTCHAR comma
ENCODING 44
SWIDTH 277 0
DWIDTH 5 0
BBX 3 3 0 -2
BITMAP
20
40
80
ENDCHAR

STARTCHAR minus
ENCODING 45
SWIDTH 606 0
DWIDTH 11 0
BBX 8 1 1 5
BITMAP
FF
ENDCHAR

STARTCHAR period
ENCODING 46
SWIDTH 277 0
DWIDTH 5 0
BBX 1 2 2 0
BITMAP
80
80
ENDCHAR

STARTCHAR slash
ENCODING 47
SWIDTH 437 0
DWIDTH 6 0
BBX 4 16 1 -2
BITMAP
10
10
10
10
20
20
20
20
40
40
40
40
80
80
80
80
ENDCHAR

STARTCHAR zero
ENCODING 48
SWIDTH 554 0
DWIDTH 10 0
BBX 8 14 1 0
BITMAP
3C
42
81
81
81
81
81
81
81
81
81
81
42
3C
ENDCHAR

STARTCHAR one
ENCODING 49
SWIDTH 554 0
DWIDTH 10 0
BBX 4 14 2 0
BITMAP
F0
10
10
10
10
10
10
10
10
10
10
10
10
10
ENDCHAR

STARTCHAR two
ENCODING 50
SWIDTH 554 0
DWIDTH 10 0
BBX 8 14 1 0
BITMAP
3C
42
81
81
81
01
02
04
08
10
20
40
80
FF
ENDCHAR

STARTCHAR three
ENCODING 51
SWIDTH 554 0
DWIDTH 10 0
BBX 8 14 1 0
BITMAP
1C
22
41
01
01
02
1C
02
01
01
81
81
42
3C
ENDCHAR

STARTCHAR four
ENCODING 52
SWIDTH 554 0
DWIDTH 10 0
BBX 8 14 1 0
BITMAP
06
0A
0A
12
12
22
22
42
42
82
FF
02
02
02
ENDCHAR

STARTCHAR five
ENCODING 53
SWIDTH 554 0
DWIDTH 10 0
BBX 8 14 1 0
BITMAP
FE
80
80
80
80
BC
C2
01
01
01
81
81
42
3C
ENDCHAR

STARTCHAR six
ENCODING 54
SWIDTH 554 0
DWIDTH 10 0
BBX 8 14 1 0
BITMAP
08
10
20
40
40
BC
C2
81
81
81
81
81
42
3C
ENDCHAR

STARTCHAR seven
ENCODING 55
SWIDTH 554 0
DWIDTH 10 0
BBX 8 14 1 0
BITMAP
FF
01
01
02
02
04
04
08
08
10
10
10
20
20
ENDCHAR

STARTCHAR eight
ENCODING 56
SWIDTH 554 0
DWIDTH 10 0
BBX 8 14 1 0
BITMAP
3C
42
81
81
81
42
3C
42
81
81
81
81
42
3C
ENDCHAR

STARTCHAR nine
ENCODING 57
SWIDTH 554 0
DWIDTH 10 0
BBX 8 14 1 0
BITMAP
3C
42
81
81
81
81
81
43
3D
02
02
04
08
10
ENDCHAR

STARTCHAR colon
ENCODING 58
SWIDTH 277 0
DWIDTH 5 0
BBX 1 9 2 0
BITMAP
80
80
00
00
00
00
00
80
80
ENDCHAR

STARTCHAR semicolon
ENCODING 59
SWIDTH 277 0
DWIDTH 5 0
BBX 3 11 0 -2
BITMAP
20
20
00
00
00
00
00
00
20
40
80
ENDCHAR

STARTCHAR less
ENCODING 60
SWIDTH 606 0
DWIDTH 12 0
BBX 10 9 1 1
BITMAP
00C0
0300
0C00
3000
C000
3000
0C00
0300
00C0
ENDCHAR

STARTCHAR equal
ENCODING 61
SWIDTH 606 0
DWIDTH 11 0
BBX 9 4 1 4
BITMAP
FF80
0000
0000
FF80
ENDCHAR

STARTCHAR greater
ENCODING 62
SWIDTH 606 0
DWIDTH 12 0
BBX 10 9 1 1
BITMAP
C000
3000
0C00
0300
00C0
0300
0C00
3000
C000
ENDCHAR

STARTCHAR question
ENCODING 63
SWIDTH 591 0
DWIDTH 8 0
BBX 8 14 0 0
BITMAP
3C
42
81
81
01
01
02
04
08
10
10
00
10
10
ENDCHAR

STARTCHAR at
ENCODING 64
SWIDTH 867 0
DWIDTH 14 0
BBX 12 14 1 0
BITMAP
0FC0
3020
6010
4350
8C90
8890
9090
9110
9120
9320
8EC0
4000
60C0
1F00
ENDCHAR

STARTCHAR A
ENCODING 65
SWIDTH 740 0
DWIDTH 14 0
BBX 13 14 0 0
BITMAP
0200
0200
0500
0500
0880
0880
1040
1040
3FE0
2020
4010
4010
8008
8008
ENDCHAR

STARTCHAR B
ENCODING 66
SWIDTH 574 0
DWIDTH 11 0
BBX 8 14 1 0
BITMAP
F8
84
82
82
82
84
FC
82
81
81
81
81
82
FC
ENDCHAR

STARTCHAR C
ENCODING 67
SWIDTH 813 0
DWIDTH 16 0
BBX 12 14 2 0
BITMAP
0F80
3060
4010
4010
8000
8000
8000
8000
8000
8000
4010
4010
3060
0F80
ENDCHAR

STARTCHAR D
ENCODING 68
SWIDTH 744 0
DWIDTH 15 0
BBX 12 14 1 0
BITMAP
FF00
80C0
8020
8020
8010
8010
8010
8010
8010
8010
8020
8020
80C0
FF00
ENDCHAR

STARTCHAR E
ENCODING 69
SWIDTH 536 0
DWIDTH 10 0
BBX 7 14 1 0
BITMAP
FE
80
80
80
80
80
FE
80
80
80
80
80
80
FE
ENDCHAR

STARTCHAR F
ENCODING 70
SWIDTH 485 0
DWIDTH 9 0
BBX 7 14 1 0
BITMAP
FE
80
80
80
80
80
FE
80
80
80
80
80
80
80
ENDCHAR

STARTCHAR G
ENCODING 71
SWIDTH 872 0
DWIDTH 17 0
BBX 13 14 2 0
BITMAP
0F80
3060
4010
4010
8000
8000
8000
8000
87F8
8008
4010
4010
3060
0F80
ENDCHAR

STARTCHAR H
ENCODING 72
SWIDTH 683 0
DWIDTH 13 0
BBX 10 14 1 0
BITMAP
8040
8040
8040
8040
8040
8040
FFC0
8040
8040
8040
8040
8040
8040
8040
ENDCHAR

STARTCHAR I
ENCODING 73
SWIDTH 226 0
DWIDTH 4 0
BBX 1 14 1 0
BITMAP
80
80
80
80
80
80
80
80
80
80
80
80
80
80
ENDCHAR

STARTCHAR J
ENCODING 74
SWIDTH 482 0
DWIDTH 9 0
BBX 7 14 0 0
BITMAP
02
02
02
02
02
02
02
02
02
02
82
82
44
38
ENDCHAR

STARTCHAR K
ENCODING 75
SWIDTH 591 0
DWIDTH 11 0
BBX 9 14 1 0
BITMAP
8080
8100
8200
8400
8800
9000
A000
E000
9000
8800
8400
8200
8100
8080
ENDCHAR

STARTCHAR L
ENCODING 76
SWIDTH 462 0
DWIDTH 9 0
BBX 7 14 1 0
BITMAP
80
80
80
80
80
80
80
80
80
80
80
80
80
FE
ENDCHAR

STARTCHAR M
ENCODING 77
SWIDTH 919 0
DWIDTH 18 0
BBX 13 14 2 0
BITMAP
C018
C018
A028
A028
A028
9048
9048
8888
8888
8888
8508
8508
8208
8208
ENDCHAR

STARTCHAR N
ENCODING 78
SWIDTH 740 0
DWIDTH 14 0
BBX 11 14 2 0
BITMAP
8020
C020
A020
A020
9020
8820
8820
8420
8220
8220
8120
80A0
8060
8020
ENDCHAR

STARTCHAR O
ENCODING 79
SWIDTH 869 0
DWIDTH 17 0
BBX 13 14 2 0
BITMAP
0F80
3060
4010
4010
8008
8008
8008
8008
8008
8008
4010
4010
3060
0F80
ENDCHAR

STARTCHAR P
ENCODING 80
SWIDTH 592 0
DWIDTH 11 0
BBX 9 14 1 0
BITMAP
FE00
8100
8080
8080
8080
8080
8100
FE00
8000
8000
8000
8000
8000
8000
ENDCHAR

STARTCHAR Q
ENCODING 81
SWIDTH 871 0
DWIDTH 17 0
BBX 13 14 2 0
BITMAP
0F80
3060
4010
4010
8008
8008
8008
8008
8008
BE08
4190
4050
3060
0F98
ENDCHAR

STARTCHAR R
ENCODING 82
SWIDTH 607 0
DWIDTH 12 0
BBX 10 14 1 0
BITMAP
FE00
8100
8080
8080
8080
8080
8100
9E00
8800
8400
8200
8100
8080
8040
ENDCHAR

STARTCHAR S
ENCODING 83
SWIDTH 498 0
DWIDTH 10 0
BBX 8 14 1 0
BITMAP
3C
42
81
81
80
40
38
06
01
01
81
81
42
3C
ENDCHAR

STARTCHAR T
ENCODING 84
SWIDTH 426 0
DWIDTH 8 0
BBX 7 14 0 0
BITMAP
FE
10
10
10
10
10
10
10
10
10
10
10
10
10
ENDCHAR

STARTCHAR U
ENCODING 85
SWIDTH 655 0
DWIDTH 13 0
BBX 10 14 1 0
BITMAP
8040
8040
8040
8040
8040
8040
8040
8040
8040
8040
8040
8040
6180
1E00
ENDCHAR

STARTCHAR V
ENCODING 86
SWIDTH 702 0
DWIDTH 13 0
BBX 12 14 0 0
BITMAP
8010
8010
4020
4020
2040
2040
2040
1080
1080
0900
0900
0900
0600
0600
ENDCHAR

STARTCHAR W
ENCODING 87
SWIDTH 960 0
DWIDTH 18 0
BBX 17 14 0 0
BITMAP
808080
808080
808080
414100
414100
414100
222200
222200
222200
141400
141400
141400
080800
080800
ENDCHAR

STARTCHAR X
ENCODING 88
SWIDTH 609 0
DWIDTH 12 0
BBX 11 14 0 0
BITMAP
4040
2080
2080
1100
0A00
0A00
0400
0A00
1100
1100
2080
4040
4040
8020
ENDCHAR

STARTCHAR Y
ENCODING 89
SWIDTH 592 0
DWIDTH 11 0
BBX 9 14 1 0
BITMAP
8080
8080
4100
4100
2200
2200
1400
1400
0800
0800
0800
0800
0800
0800
ENDCHAR

STARTCHAR Z
ENCODING 90
SWIDTH 480 0
DWIDTH 9 0
BBX 8 14 0 0
BITMAP
FF
01
02
02
04
08
08
10
20
20
40
80
80
FF
ENDCHAR

STARTCHAR bracketleft
ENCODING 91
SWIDTH 351 0
DWIDTH 6 0
BBX 4 17 1 -3
BITMAP
30
40
80
80
80
80
80
80
80
80
80
80
80
80
80
40
30
ENDCHAR

STARTCHAR backslash
ENCODING 92
SWIDTH 605 0
DWIDTH 7 0
BBX 5 14 1 0
BITMAP
80
80
80
40
40
40
20
20
10
10
10
08
08
08
ENDCHAR

STARTCHAR bracketright
ENCODING 93
SWIDTH 351 0
DWIDTH 6 0
BBX 4 17 1 -3
BITMAP
C0
20
10
10
10
10
10
10
10
10
10
10
10
10
10
20
C0
ENDCHAR

STARTCHAR asciicircum
ENCODING 94
SWIDTH 672 0
DWIDTH 11 0
BBX 9 10 1 4
BITMAP
0800
0800
1400
1400
2200
2200
4100
4100
8080
8080
ENDCHAR

STARTCHAR underscore
ENCODING 95
SWIDTH 500 0
DWIDTH 9 0
BBX 9 1 0 -3
BITMAP
FF80
ENDCHAR

STARTCHAR quoteleft
ENCODING 96
SWIDTH 351 0
DWIDTH 5 0
BBX 3 3 1 11
BITMAP
80
40
20
ENDCHAR

STARTCHAR a
ENCODING 97
SWIDTH 683 0
DWIDTH 13 0
BBX 10 10 1 0
BITMAP
1E40
6140
40C0
8040
8040
8040
8040
40C0
6140
1E40
ENDCHAR

STARTCHAR b
ENCODING 98
SWIDTH 682 0
DWIDTH 13 0
BBX 10 14 2 0
BITMAP
8000
8000
8000
8000
9E00
A180
C080
8040
8040
8040
8040
8080
C180
BE00
ENDCHAR

STARTCHAR c
ENCODING 99
SWIDTH 647 0
DWIDTH 12 0
BBX 10 10 1 0
BITMAP
1F00
60C0
4040
8000
8000
8000
8000
4040
60C0
1F00
ENDCHAR

STARTCHAR d
ENCODING 100
SWIDTH 685 0
DWIDTH 13 0
BBX 10 14 1 0
BITMAP
0040
0040
0040
0040
1E40
6140
40C0
8040
8040
8040
8040
40C0
6140
1E40
ENDCHAR

STARTCHAR e
ENCODING 101
SWIDTH 650 0
DWIDTH 13 0
BBX 11 10 1 0
BITMAP
1F00
60C0
4040
8020
FFE0
8000
8000
4040
60C0
1F00
ENDCHAR

STARTCHAR f
ENCODING 102
SWIDTH 314 0
DWIDTH 6 0
BBX 6 14 0 0
BITMAP
0C
10
20
20
FC
20
20
20
20
20
20
20
20
20
ENDCHAR

STARTCHAR g
ENCODING 103
SWIDTH 673 0
DWIDTH 13 0
BBX 10 13 1 -3
BITMAP
1E40
6140
40C0
8040
8040
8040
8040
40C0
6140
1E40
0040
4080
3F00
ENDCHAR

STARTCHAR h
ENCODING 104
SWIDTH 610 0
DWIDTH 12 0
BBX 8 14 2 0
BITMAP
80
80
80
80
BC
C2
81
81
81
81
81
81
81
81
ENDCHAR

STARTCHAR i
ENCODING 105
SWIDTH 200 0
DWIDTH 4 0
BBX 1 14 2 0
BITMAP
80
80
00
00
80
80
80
80
80
80
80
80
80
80
ENDCHAR

STARTCHAR j
ENCODING 106
SWIDTH 203 0
DWIDTH 4 0
BBX 3 18 0 -4
BITMAP
20
20
00
00
20
20
20
20
20
20
20
20
20
20
20
20
20
C0
ENDCHAR

STARTCHAR k
ENCODING 107
SWIDTH 502 0
DWIDTH 10 0
BBX 7 14 2 0
BITMAP
80
80
80
80
82
84
88
90
A0
E0
90
88
84
82
ENDCHAR

STARTCHAR l
ENCODING 108
SWIDTH 200 0
DWIDTH 4 0
BBX 1 14 2 0
BITMAP
80
80
80
80
80
80
80
80
80
80
80
80
80
80
ENDCHAR

STARTCHAR m
ENCODING 109
SWIDTH 938 0
DWIDTH 18 0
BBX 15 10 1 0
BITMAP
BC78
C284
8102
8102
8102
8102
8102
8102
8102
8102
ENDCHAR

STARTCHAR n
ENCODING 110
SWIDTH 610 0
DWIDTH 12 0
BBX 8 10 2 0
BITMAP
BC
C2
81
81
81
81
81
81
81
81
ENDCHAR

STARTCHAR o
ENCODING 111
SWIDTH 655 0
DWIDTH 13 0
BBX 11 10 1 0
BITMAP
1F00
60C0
4040
8020
8020
8020
8020
4040
60C0
1F00
ENDCHAR

STARTCHAR p
ENCODING 112
SWIDTH 682 0
DWIDTH 13 0
BBX 10 14 2 -4
BITMAP
9E00
A180
C080
8040
8040
8040
8040
C080
A180
9E00
8000
8000
8000
8000
ENDCHAR

STARTCHAR q
ENCODING 113
SWIDTH 682 0
DWIDTH 13 0
BBX 10 14 1 -4
BITMAP
1E40
6140
40C0
8040
8040
8040
8040
40C0
6140
1E40
0040
0040
0040
0040
ENDCHAR

STARTCHAR r
ENCODING 114
SWIDTH 301 0
DWIDTH 6 0
BBX 4 10 1 0
BITMAP
B0
C0
80
80
80
80
80
80
80
80
ENDCHAR

STARTCHAR s
ENCODING 115
SWIDTH 388 0
DWIDTH 8 0
BBX 6 10 1 0
BITMAP
78
C4
84
80
60
18
04
84
8C
78
ENDCHAR

STARTCHAR t
ENCODING 116
SWIDTH 339 0
DWIDTH 6 0
BBX 5 13 0 0
BITMAP
20
20
20
F8
20
20
20
20
20
20
20
20
20
ENDCHAR

STARTCHAR u
ENCODING 117
SWIDTH 608 0
DWIDTH 12 0
BBX 8 10 2 0
BITMAP
81
81
81
81
81
81
81
81
43
3D
ENDCHAR

STARTCHAR v
ENCODING 118
SWIDTH 554 0
DWIDTH 11 0
BBX 9 10 1 0
BITMAP
8080
8080
4100
4100
2200
2200
1400
1400
0800
0800
ENDCHAR

STARTCHAR w
ENCODING 119
SWIDTH 831 0
DWIDTH 16 0
BBX 13 10 1 0
BITMAP
8008
8208
4210
4510
4510
2520
28A0
28A0
1040
1040
ENDCHAR

STARTCHAR x
ENCODING 120
SWIDTH 480 0
DWIDTH 9 0
BBX 7 10 1 0
BITMAP
82
44
44
28
10
28
44
44
82
82
ENDCHAR

STARTCHAR y
ENCODING 121
SWIDTH 536 0
DWIDTH 10 0
BBX 9 14 0 -4
BITMAP
8080
8080
4100
4100
2200
2200
1400
1400
0800
0800
1000
1000
2000
2000
ENDCHAR

STARTCHAR z
ENCODING 122
SWIDTH 425 0
DWIDTH 8 0
BBX 7 10 0 0
BITMAP
FE
02
04
08
10
20
40
80
80
FE
ENDCHAR

STARTCHAR braceleft
ENCODING 123
SWIDTH 351 0
DWIDTH 6 0
BBX 3 17 1 -3
BITMAP
20
40
40
40
40
40
40
40
80
40
40
40
40
40
40
40
20
ENDCHAR

STARTCHAR bar
ENCODING 124
SWIDTH 672 0
DWIDTH 12 0
BBX 1 14 6 0
BITMAP
80
80
80
80
80
80
80
80
80
80
80
80
80
80
ENDCHAR

STARTCHAR braceright
ENCODING 125
SWIDTH 351 0
DWIDTH 6 0
BBX 3 17 1 -3
BITMAP
80
40
40
40
40
40
40
40
20
40
40
40
40
40
40
40
80
ENDCHAR

STARTCHAR asciitilde
ENCODING 126
SWIDTH 606 0
DWIDTH 11 0
BBX 9 3 1 4
BITMAP
3080
4900
8600
ENDCHAR

STARTCHAR exclamdown
ENCODING 161
SWIDTH 295 0
DWIDTH 5 0
BBX 1 14 2 -4
BITMAP
80
80
00
80
80
80
80
80
80
80
80
80
80
80
ENDCHAR

STARTCHAR cent
ENCODING 162
SWIDTH 554 0
DWIDTH 10 0
BBX 8 12 1 1
BITMAP
08
08
3E
41
80
80
80
80
41
3E
08
08
ENDCHAR

STARTCHAR sterling
ENCODING 163
SWIDTH 554 0
DWIDTH 11 0
BBX 9 14 1 0
BITMAP
3C00
4200
8100
8100
8000
4000
2000
FE00
1000
1080
1080
2080
4100
FE00
ENDCHAR

STARTCHAR currency
ENCODING 164
SWIDTH 554 0
DWIDTH 10 0
BBX 8 8 1 4
BITMAP
BD
42
81
81
81
81
42
BD
ENDCHAR

STARTCHAR yen
ENCODING 165
SWIDTH 554 0
DWIDTH 11 0
BBX 9 14 1 0
BITMAP
8080
8080
4100
4100
2200
E380
1400
1400
FF80
0800
0800
0800
0800
0800
ENDCHAR

STARTCHAR brokenbar
ENCODING 166
SWIDTH 672 0
DWIDTH 11 0
BBX 1 14 5 0
BITMAP
80
80
80
80
80
80
00
00
80
80
80
80
80
80
ENDCHAR

STARTCHAR section
ENCODING 167
SWIDTH 615 0
DWIDTH 9 0
BBX 7 17 1 -3
BITMAP
38
44
82
82
40
70
8C
82
82
62
1C
04
02
82
82
44
38
ENDCHAR

STARTCHAR dieresis
ENCODING 168
SWIDTH 369 0
DWIDTH 7 0
BBX 4 2 2 11
BITMAP
90
90
ENDCHAR

STARTCHAR copyright
ENCODING 169
SWIDTH 747 0
DWIDTH 15 0
BBX 13 13 1 0
BITMAP
0F80
3060
4010
4710
8888
9008
9008
9008
8888
4710
4010
3060
0F80
ENDCHAR

STARTCHAR ordfeminine
ENCODING 170
SWIDTH 369 0
DWIDTH 7 0
BBX 6 8 0 6
BITMAP
74
8C
84
84
8C
74
00
FC
ENDCHAR

STARTCHAR guillemotleft
ENCODING 171
SWIDTH 425 0
DWIDTH 8 0
BBX 6 5 1 3
BITMAP
24
48
90
48
24
ENDCHAR

STARTCHAR logicalnot
ENCODING 172
SWIDTH 606 0
DWIDTH 11 0
BBX 9 5 1 3
BITMAP
FF80
0080
0080
0080
0080
ENDCHAR

STARTCHAR hyphen
ENCODING 173
SWIDTH 332 0
DWIDTH 7 0
BBX 5 1 1 5
BITMAP
F8
ENDCHAR

STARTCHAR registered
ENCODING 174
SWIDTH 747 0
DWIDTH 15 0
BBX 13 13 1 0
BITMAP
0F80
3060
4010
4F90
8848
8848
8F88
8908
8888
4850
4010
3060
0F80
ENDCHAR

STARTCHAR macron
ENCODING 175
SWIDTH 485 0
DWIDTH 9 0
BBX 6 1 1 11
BITMAP
FC
ENDCHAR

STARTCHAR degree
ENCODING 176
SWIDTH 400 0
DWIDTH 7 0
BBX 5 5 1 9
BITMAP
70
88
88
88
70
ENDCHAR

STARTCHAR plusminus
ENCODING 177
SWIDTH 606 0
DWIDTH 11 0
BBX 9 9 1 1
BITMAP
0800
0800
0800
FF80
0800
0800
0800
0000
FF80
ENDCHAR

STARTCHAR twosuperior
ENCODING 178
SWIDTH 332 0
DWIDTH 6 0
BBX 5 8 0 6
BITMAP
70
88
08
10
20
40
80
F8
ENDCHAR

STARTCHAR threesuperior
ENCODING 179
SWIDTH 332 0
DWIDTH 6 0
BBX 5 8 0 6
BITMAP
70
88
08
70
08
08
88
70
ENDCHAR

STARTCHAR acute
ENCODING 180
SWIDTH 375 0
DWIDTH 7 0
BBX 3 3 1 11
BITMAP
20
40
80
ENDCHAR

STARTCHAR mu
ENCODING 181
SWIDTH 608 0
DWIDTH 10 0
BBX 8 14 1 -4
BITMAP
81
81
81
81
81
81
81
81
C3
BD
80
80
80
80
ENDCHAR

STARTCHAR paragraph
ENCODING 182
SWIDTH 564 0
DWIDTH 9 0
BBX 8 17 0 -3
BITMAP
3F
79
F9
F9
F9
79
39
09
09
09
09
09
09
09
09
09
09
ENDCHAR

STARTCHAR periodcentered
ENCODING 183
SWIDTH 277 0
DWIDTH 5 0
BBX 1 2 2 4
BITMAP
80
80
ENDCHAR

STARTCHAR cedilla
ENCODING 184
SWIDTH 324 0
DWIDTH 6 0
BBX 3 3 1 -3
BITMAP
40
20
C0
ENDCHAR

STARTCHAR onesuperior
ENCODING 185
SWIDTH 332 0
DWIDTH 6 0
BBX 3 8 0 6
BITMAP
E0
20
20
20
20
20
20
20
ENDCHAR

STARTCHAR ordmasculine
ENCODING 186
SWIDTH 369 0
DWIDTH 7 0
BBX 6 8 0 6
BITMAP
78
84
84
84
84
78
00
FC
ENDCHAR

STARTCHAR guillemotright
ENCODING 187
SWIDTH 425 0
DWIDTH 8 0
BBX 6 5 1 3
BITMAP
90
48
24
48
90
ENDCHAR

STARTCHAR onequarter
ENCODING 188
SWIDTH 831 0
DWIDTH 15 0
BBX 13 14 1 0
BITMAP
E040
2040
2080
2080
2100
2100
2210
2230
0450
0490
0910
09F8
1010
1010
ENDCHAR

STARTCHAR onehalf
ENCODING 189
SWIDTH 831 0
DWIDTH 15 0
BBX 13 14 1 0
BITMAP
E040
2040
2080
2080
2100
2100
2270
2288
0408
0410
0820
0840
1080
10F8
ENDCHAR

STARTCHAR threequarters
ENCODING 190
SWIDTH 831 0
DWIDTH 15 0
BBX 13 14 1 0
BITMAP
7040
8840
0880
7080
0900
0900
8A10
7230
0450
0490
0910
09F8
1010
1010
ENDCHAR

STARTCHAR questiondown
ENCODING 191
SWIDTH 591 0
DWIDTH 8 0
BBX 8 14 0 -4
BITMAP
08
08
00
08
08
10
20
40
80
80
81
81
42
3C
ENDCHAR

STARTCHAR Agrave
ENCODING 192
SWIDTH 740 0
DWIDTH 14 0
BBX 13 18 0 0
BITMAP
1000
0800
0400
0000
0200
0200
0500
0500
0880
0880
1040
1040
3FE0
2020
4010
4010
8008
8008
ENDCHAR

STARTCHAR Aacute
ENCODING 193
SWIDTH 740 0
DWIDTH 14 0
BBX 13 18 0 0
BITMAP
0080
0100
0200
0000
0200
0200
0500
0500
0880
0880
1040
1040
3FE0
2020
4010
4010
8008
8008
ENDCHAR

STARTCHAR Acircumflex
ENCODING 194
SWIDTH 740 0
DWIDTH 14 0
BBX 13 18 0 0
BITMAP
0200
0500
0880
0000
0200
0200
0500
0500
0880
0880
1040
1040
3FE0
2020
4010
4010
8008
8008
ENDCHAR

STARTCHAR Atilde
ENCODING 195
SWIDTH 740 0
DWIDTH 14 0
BBX 13 17 0 0
BITMAP
0640
0980
0000
0200
0200
0500
0500
0880
0880
1040
1040
3FE0
2020
4010
4010
8008
8008
ENDCHAR

STARTCHAR Adieresis
ENCODING 196
SWIDTH 740 0
DWIDTH 14 0
BBX 13 17 0 0
BITMAP
0880
0880
0000
0200
0200
0500
0500
0880
0880
1040
1040
3FE0
2020
4010
4010
8008
8008
ENDCHAR

STARTCHAR Aring
ENCODING 197
SWIDTH 740 0
DWIDTH 14 0
BBX 13 19 0 0
BITMAP
0300
0480
0480
0300
0000
0200
0200
0500
0500
0880
0880
1040
1040
3FE0
2020
4010
4010
8008
8008
ENDCHAR

STARTCHAR AE
ENCODING 198
SWIDTH 992 0
DWIDTH 18 0
BBX 16 14 1 0
BITMAP
00FF
00C0
0140
0240
0240
0440
087F
0840
1FC0
2040
2040
4040
8040
807F
ENDCHAR

STARTCHAR Ccedilla
ENCODING 199
SWIDTH 813 0
DWIDTH 15 0
BBX 12 17 1 -3
BITMAP
0F80
3060
4010
4010
8000
8000
8000
8000
8000
8000
4010
4010
3060
0F80
0400
0200
0C00
ENDCHAR

STARTCHAR Egrave
ENCODING 200
SWIDTH 536 0
DWIDTH 10 0
BBX 7 18 1 0
BITMAP
40
20
10
00
FE
80
80
80
80
80
FE
80
80
80
80
80
80
FE
ENDCHAR

STARTCHAR Eacute
ENCODING 201
SWIDTH 536 0
DWIDTH 10 0
BBX 7 18 1 0
BITMAP
04
08
10
00
FE
80
80
80
80
80
FE
80
80
80
80
80
80
FE
ENDCHAR

STARTCHAR Ecircumflex
ENCODING 202
SWIDTH 536 0
DWIDTH 10 0
BBX 7 18 1 0
BITMAP
10
28
44
00
FE
80
80
80
80
80
FE
80
80
80
80
80
80
FE
ENDCHAR

STARTCHAR Edieresis
ENCODING 203
SWIDTH 536 0
DWIDTH 10 0
BBX 7 17 1 0
BITMAP
24
24
00
FE
80
80
80
80
80
FE
80
80
80
80
80
80
FE
ENDCHAR

STARTCHAR Igrave
ENCODING 204
SWIDTH 226 0
DWIDTH 4 0
BBX 3 18 -1 0
BITMAP
80
40
20
00
20
20
20
20
20
20
20
20
20
20
20
20
20
20
ENDCHAR

STARTCHAR Iacute
ENCODING 205
SWIDTH 226 0
DWIDTH 4 0
BBX 3 18 1 0
BITMAP
20
40
80
00
80
80
80
80
80
80
80
80
80
80
80
80
80
80
ENDCHAR

STARTCHAR Icircumflex
ENCODING 206
SWIDTH 226 0
DWIDTH 4 0
BBX 5 18 -1 0
BITMAP
20
50
88
00
20
20
20
20
20
20
20
20
20
20
20
20
20
20
ENDCHAR

STARTCHAR Idieresis
ENCODING 207
SWIDTH 226 0
DWIDTH 4 0
BBX 3 17 0 0
BITMAP
A0
A0
00
40
40
40
40
40
40
40
40
40
40
40
40
40
40
ENDCHAR

STARTCHAR Eth
ENCODING 208
SWIDTH 790 0
DWIDTH 15 0
BBX 14 14 -1 0
BITMAP
3FC0
2030
2008
2008
2004
2004
FC04
2004
2004
2004
2008
2008
2030
3FC0
ENDCHAR

STARTCHAR Ntilde
ENCODING 209
SWIDTH 740 0
DWIDTH 14 0
BBX 11 17 2 0
BITMAP
0C80
1300
0000
C020
C020
A020
A020
9020
8820
8820
8420
8220
8220
8120
80A0
80A0
8060
ENDCHAR

STARTCHAR Ograve
ENCODING 210
SWIDTH 869 0
DWIDTH 17 0
BBX 13 18 2 0
BITMAP
0800
0400
0200
0000
0F80
3060
4010
4010
8008
8008
8008
8008
8008
8008
4010
4010
3060
0F80
ENDCHAR

STARTCHAR Oacute
ENCODING 211
SWIDTH 869 0
DWIDTH 17 0
BBX 13 18 2 0
BITMAP
0080
0100
0200
0000
0F80
3060
4010
4010
8008
8008
8008
8008
8008
8008
4010
4010
3060
0F80
ENDCHAR

STARTCHAR Ocircumflex
ENCODING 212
SWIDTH 869 0
DWIDTH 17 0
BBX 13 18 2 0
BITMAP
0200
0500
0880
0000
0F80
3060
4010
4010
8008
8008
8008
8008
8008
8008
4010
4010
3060
0F80
ENDCHAR

STARTCHAR Otilde
ENCODING 213
SWIDTH 869 0
DWIDTH 17 0
BBX 13 17 2 0
BITMAP
0640
0980
0000
0F80
3060
4010
4010
8008
8008
8008
8008
8008
8008
4010
4010
3060
0F80
ENDCHAR

STARTCHAR Odieresis
ENCODING 214
SWIDTH 869 0
DWIDTH 17 0
BBX 13 17 2 0
BITMAP
0880
0880
0000
0F80
3060
4010
4010
8008
8008
8008
8008
8008
8008
4010
4010
3060
0F80
ENDCHAR

STARTCHAR multiply
ENCODING 215
SWIDTH 606 0
DWIDTH 11 0
BBX 9 9 1 1
BITMAP
8080
4100
2200
1400
0800
1400
2200
4100
8080
ENDCHAR

STARTCHAR Oslash
ENCODING 216
SWIDTH 868 0
DWIDTH 16 0
BBX 14 14 1 0
BITMAP
0F84
3068
4010
4030
8048
8088
8108
8208
8408
8808
5010
2010
7060
8F80
ENDCHAR

STARTCHAR Ugrave
ENCODING 217
SWIDTH 655 0
DWIDTH 13 0
BBX 10 18 1 0
BITMAP
1000
0800
0400
0000
8040
8040
8040
8040
8040
8040
8040
8040
8040
8040
8040
8040
6180
1E00
ENDCHAR

STARTCHAR Uacute
ENCODING 218
SWIDTH 655 0
DWIDTH 13 0
BBX 10 18 1 0
BITMAP
0200
0400
0800
0000
8040
8040
8040
8040
8040
8040
8040
8040
8040
8040
8040
8040
6180
1E00
ENDCHAR

STARTCHAR Ucircumflex
ENCODING 219
SWIDTH 655 0
DWIDTH 13 0
BBX 10 18 1 0
BITMAP
0400
0A00
1100
0000
8040
8040
8040
8040
8040
8040
8040
8040
8040
8040
8040
8040
6180
1E00
ENDCHAR

STARTCHAR Udieresis
ENCODING 220
SWIDTH 655 0
DWIDTH 13 0
BBX 10 17 1 0
BITMAP
1200
1200
0000
8040
8040
8040
8040
8040
8040
8040
8040
8040
8040
8040
8040
6180
1E00
ENDCHAR

STARTCHAR Yacute
ENCODING 221
SWIDTH 592 0
DWIDTH 11 0
BBX 9 18 1 0
BITMAP
0200
0400
0800
0000
8080
8080
4100
4100
2200
2200
1400
1400
0800
0800
0800
0800
0800
0800
ENDCHAR

STARTCHAR Thorn
ENCODING 222
SWIDTH 592 0
DWIDTH 11 0
BBX 9 14 1 0
BITMAP
8000
8000
8000
FE00
8100
8080
8080
8080
8080
8100
FE00
8000
8000
8000
ENDCHAR

STARTCHAR germandbls
ENCODING 223
SWIDTH 554 0
DWIDTH 10 0
BBX 8 14 1 0
BITMAP
38
44
82
82
82
84
9C
82
81
81
81
81
C2
BC
ENDCHAR

STARTCHAR agrave
ENCODING 224
SWIDTH 683 0
DWIDTH 13 0
BBX 11 14 1 0
BITMAP
0800
0400
0200
0000
1F20
60E0
4060
8020
8020
8020
8020
4060
60E0
1F20
ENDCHAR

STARTCHAR aacute
ENCODING 225
SWIDTH 683 0
DWIDTH 13 0
BBX 11 14 1 0
BITMAP
0200
0400
0800
0000
1F20
60E0
4060
8020
8020
8020
8020
4060
60E0
1F20
ENDCHAR

STARTCHAR acircumflex
ENCODING 226
SWIDTH 683 0
DWIDTH 13 0
BBX 11 14 1 0
BITMAP
0400
0A00
1100
0000
1F20
60E0
4060
8020
8020
8020
8020
4060
60E0
1F20
ENDCHAR

STARTCHAR atilde
ENCODING 227
SWIDTH 683 0
DWIDTH 13 0
BBX 11 13 1 0
BITMAP
0900
1600
0000
1F20
60E0
4060
8020
8020
8020
8020
4060
60E0
1F20
ENDCHAR

STARTCHAR adieresis
ENCODING 228
SWIDTH 683 0
DWIDTH 13 0
BBX 11 13 1 0
BITMAP
1200
1200
0000
1F20
60E0
4060
8020
8020
8020
8020
4060
60E0
1F20
ENDCHAR

STARTCHAR aring
ENCODING 229
SWIDTH 683 0
DWIDTH 13 0
BBX 11 15 1 0
BITMAP
0600
0900
0900
0600
0000
1F20
60E0
4060
8020
8020
8020
8020
4060
60E0
1F20
ENDCHAR

STARTCHAR ae
ENCODING 230
SWIDTH 1157 0
DWIDTH 21 0
BBX 19 10 1 0
BITMAP
1E4F00
6150C0
40E040
804020
807FE0
804000
804000
40E040
6150C0
1E4F00
ENDCHAR

STARTCHAR ccedilla
ENCODING 231
SWIDTH 647 0
DWIDTH 12 0
BBX 10 13 1 -3
BITMAP
1F00
60C0
4040
8000
8000
8000
8000
4040
60C0
1F00
0800
0400
1800
ENDCHAR

STARTCHAR egrave
ENCODING 232
SWIDTH 650 0
DWIDTH 13 0
BBX 11 14 1 0
BITMAP
0800
0400
0200
0000
1F00
60C0
4040
8020
FFE0
8000
8000
4040
60C0
1F00
ENDCHAR

STARTCHAR eacute
ENCODING 233
SWIDTH 650 0
DWIDTH 13 0
BBX 11 14 1 0
BITMAP
0200
0400
0800
0000
1F00
60C0
4040
8020
FFE0
8000
8000
4040
60C0
1F00
ENDCHAR

STARTCHAR ecircumflex
ENCODING 234
SWIDTH 650 0
DWIDTH 13 0
BBX 11 14 1 0
BITMAP
0400
0A00
1100
0000
1F00
60C0
4040
8020
FFE0
8000
8000
4040
60C0
1F00
ENDCHAR

STARTCHAR edieresis
ENCODING 235
SWIDTH 650 0
DWIDTH 13 0
BBX 11 13 1 0
BITMAP
1200
1200
0000
1F00
60C0
4040
8020
FFE0
8000
8000
4040
60C0
1F00
ENDCHAR

STARTCHAR igrave
ENCODING 236
SWIDTH 200 0
DWIDTH 3 0
BBX 3 14 0 0
BITMAP
80
40
20
00
40
40
40
40
40
40
40
40
40
40
ENDCHAR

STARTCHAR iacute
ENCODING 237
SWIDTH 200 0
DWIDTH 3 0
BBX 3 14 0 0
BITMAP
20
40
80
00
40
40
40
40
40
40
40
40
40
40
ENDCHAR

STARTCHAR icircumflex
ENCODING 238
SWIDTH 200 0
DWIDTH 3 0
BBX 5 14 -1 0
BITMAP
20
50
88
00
20
20
20
20
20
20
20
20
20
20
ENDCHAR

STARTCHAR idieresis
ENCODING 239
SWIDTH 200 0
DWIDTH 3 0
BBX 4 13 0 0
BITMAP
90
90
00
40
40
40
40
40
40
40
40
40
40
ENDCHAR

STARTCHAR eth
ENCODING 240
SWIDTH 655 0
DWIDTH 13 0
BBX 11 14 1 0
BITMAP
6300
1C00
6600
0100
1F80
60C0
4040
8020
8020
8020
8020
4040
60C0
1F00
ENDCHAR

STARTCHAR ntilde
ENCODING 241
SWIDTH 610 0
DWIDTH 10 0
BBX 8 13 1 0
BITMAP
24
58
00
BC
C2
81
81
81
81
81
81
81
81
ENDCHAR

STARTCHAR ograve
ENCODING 242
SWIDTH 655 0
DWIDTH 13 0
BBX 11 14 1 0
BITMAP
0800
0400
0200
0000
1F00
60C0
4040
8020
8020
8020
8020
4040
60C0
1F00
ENDCHAR

STARTCHAR oacute
ENCODING 243
SWIDTH 655 0
DWIDTH 13 0
BBX 11 14 1 0
BITMAP
0200
0400
0800
0000
1F00
60C0
4040
8020
8020
8020
8020
4040
60C0
1F00
ENDCHAR

STARTCHAR ocircumflex
ENCODING 244
SWIDTH 655 0
DWIDTH 13 0
BBX 11 14 1 0
BITMAP
0400
0A00
1100
0000
1F00
60C0
4040
8020
8020
8020
8020
4040
60C0
1F00
ENDCHAR

STARTCHAR otilde
ENCODING 245
SWIDTH 655 0
DWIDTH 13 0
BBX 11 13 1 0
BITMAP
0900
1600
0000
1F00
60C0
4040
8020
8020
8020
8020
4040
60C0
1F00
ENDCHAR

STARTCHAR odieresis
ENCODING 246
SWIDTH 655 0
DWIDTH 13 0
BBX 11 13 1 0
BITMAP
1200
1200
0000
1F00
60C0
4040
8020
8020
8020
8020
4040
60C0
1F00
ENDCHAR

STARTCHAR divide
ENCODING 247
SWIDTH 606 0
DWIDTH 11 0
BBX 9 9 1 1
BITMAP
0800
0800
0000
0000
FF80
0000
0000
0800
0800
ENDCHAR

STARTCHAR oslash
ENCODING 248
SWIDTH 653 0
DWIDTH 13 0
BBX 11 11 1 -1
BITMAP
1F20
60C0
40C0
8120
8220
8420
8820
5040
60C0
5F00
8000
ENDCHAR

STARTCHAR ugrave
ENCODING 249
SWIDTH 608 0
DWIDTH 10 0
BBX 8 14 1 0
BITMAP
20
10
08
00
81
81
81
81
81
81
81
81
43
3D
ENDCHAR

STARTCHAR uacute
ENCODING 250
SWIDTH 608 0
DWIDTH 10 0
BBX 8 14 1 0
BITMAP
08
10
20
00
81
81
81
81
81
81
81
81
43
3D
ENDCHAR

STARTCHAR ucircumflex
ENCODING 251
SWIDTH 608 0
DWIDTH 10 0
BBX 8 14 1 0
BITMAP
10
28
44
00
81
81
81
81
81
81
81
81
43
3D
ENDCHAR

STARTCHAR udieresis
ENCODING 252
SWIDTH 608 0
DWIDTH 10 0
BBX 8 13 1 0
BITMAP
24
24
00
81
81
81
81
81
81
81
81
43
3D
ENDCHAR

STARTCHAR yacute
ENCODING 253
SWIDTH 536 0
DWIDTH 11 0
BBX 9 18 1 -4
BITMAP
0200
0400
0800
0000
8080
8080
4100
4100
2200
2200
1400
1400
0800
0800
1000
1000
2000
2000
ENDCHAR

STARTCHAR thorn
ENCODING 254
SWIDTH 682 0
DWIDTH 13 0
BBX 11 18 1 -4
BITMAP
8000
8000
8000
8000
9F00
E0C0
C040
8020
8020
8020
8020
C040
E0C0
9F00
8000
8000
8000
8000
ENDCHAR

STARTCHAR ydieresis
ENCODING 255
SWIDTH 536 0
DWIDTH 11 0
BBX 9 17 1 -4
BITMAP
1200
1200
0000
8080
8080
4100
4100
2200
2200
1400
1400
0800
0800
1000
1000
2000
2000
ENDCHAR
ENDFONT
